<mxfile host="app.diagrams.net" modified="2023-07-03T17:48:44.387Z" agent="Mozilla/5.0 (X11; Linux x86_64) AppleWebKit/537.36 (KHTML, like Gecko) Chrome/114.0.0.0 Safari/537.36" etag="mnaTG7w1WbDDIP_e5LZR" version="21.5.2" type="device">
  <diagram name="Page-1" id="IbLlvPwIF6GDQ7Zt5NYa">
    <mxGraphModel dx="714" dy="750" grid="1" gridSize="10" guides="1" tooltips="1" connect="1" arrows="1" fold="1" page="1" pageScale="1" pageWidth="850" pageHeight="1100" math="0" shadow="0">
      <root>
        <mxCell id="0" />
        <mxCell id="1" parent="0" />
        <mxCell id="ibi-GzNDX6ihbvobJFcr-142" value="First and Follow" style="shape=table;startSize=30;container=1;collapsible=0;childLayout=tableLayout;strokeColor=default;fontSize=16;swimlaneFillColor=default;" parent="1" vertex="1">
          <mxGeometry x="600" y="19" width="230" height="150" as="geometry" />
        </mxCell>
        <mxCell id="ibi-GzNDX6ihbvobJFcr-143" value="" style="shape=tableRow;horizontal=0;startSize=0;swimlaneHead=0;swimlaneBody=0;strokeColor=inherit;top=0;left=0;bottom=0;right=0;collapsible=0;dropTarget=0;fillColor=none;points=[[0,0.5],[1,0.5]];portConstraint=eastwest;fontSize=16;" parent="ibi-GzNDX6ihbvobJFcr-142" vertex="1">
          <mxGeometry y="30" width="230" height="40" as="geometry" />
        </mxCell>
        <mxCell id="ibi-GzNDX6ihbvobJFcr-144" value="" style="shape=partialRectangle;html=1;whiteSpace=wrap;connectable=0;strokeColor=inherit;overflow=hidden;fillColor=none;top=0;left=0;bottom=0;right=0;pointerEvents=1;fontSize=16;" parent="ibi-GzNDX6ihbvobJFcr-143" vertex="1">
          <mxGeometry width="58" height="40" as="geometry">
            <mxRectangle width="58" height="40" as="alternateBounds" />
          </mxGeometry>
        </mxCell>
        <mxCell id="ibi-GzNDX6ihbvobJFcr-145" value="S" style="shape=partialRectangle;html=1;whiteSpace=wrap;connectable=0;strokeColor=inherit;overflow=hidden;fillColor=none;top=0;left=0;bottom=0;right=0;pointerEvents=1;fontSize=16;" parent="ibi-GzNDX6ihbvobJFcr-143" vertex="1">
          <mxGeometry x="58" width="57" height="40" as="geometry">
            <mxRectangle width="57" height="40" as="alternateBounds" />
          </mxGeometry>
        </mxCell>
        <mxCell id="ibi-GzNDX6ihbvobJFcr-146" value="A" style="shape=partialRectangle;html=1;whiteSpace=wrap;connectable=0;strokeColor=inherit;overflow=hidden;fillColor=none;top=0;left=0;bottom=0;right=0;pointerEvents=1;fontSize=16;" parent="ibi-GzNDX6ihbvobJFcr-143" vertex="1">
          <mxGeometry x="115" width="58" height="40" as="geometry">
            <mxRectangle width="58" height="40" as="alternateBounds" />
          </mxGeometry>
        </mxCell>
        <mxCell id="ibi-GzNDX6ihbvobJFcr-155" value="B" style="shape=partialRectangle;html=1;whiteSpace=wrap;connectable=0;strokeColor=inherit;overflow=hidden;fillColor=none;top=0;left=0;bottom=0;right=0;pointerEvents=1;fontSize=16;" parent="ibi-GzNDX6ihbvobJFcr-143" vertex="1">
          <mxGeometry x="173" width="57" height="40" as="geometry">
            <mxRectangle width="57" height="40" as="alternateBounds" />
          </mxGeometry>
        </mxCell>
        <mxCell id="ibi-GzNDX6ihbvobJFcr-147" value="" style="shape=tableRow;horizontal=0;startSize=0;swimlaneHead=0;swimlaneBody=0;strokeColor=inherit;top=0;left=0;bottom=0;right=0;collapsible=0;dropTarget=0;fillColor=none;points=[[0,0.5],[1,0.5]];portConstraint=eastwest;fontSize=16;" parent="ibi-GzNDX6ihbvobJFcr-142" vertex="1">
          <mxGeometry y="70" width="230" height="40" as="geometry" />
        </mxCell>
        <mxCell id="ibi-GzNDX6ihbvobJFcr-148" value="First" style="shape=partialRectangle;html=1;whiteSpace=wrap;connectable=0;strokeColor=inherit;overflow=hidden;fillColor=none;top=0;left=0;bottom=0;right=0;pointerEvents=1;fontSize=16;" parent="ibi-GzNDX6ihbvobJFcr-147" vertex="1">
          <mxGeometry width="58" height="40" as="geometry">
            <mxRectangle width="58" height="40" as="alternateBounds" />
          </mxGeometry>
        </mxCell>
        <mxCell id="ibi-GzNDX6ihbvobJFcr-149" value="b a EP" style="shape=partialRectangle;html=1;whiteSpace=wrap;connectable=0;strokeColor=inherit;overflow=hidden;fillColor=none;top=0;left=0;bottom=0;right=0;pointerEvents=1;fontSize=16;" parent="ibi-GzNDX6ihbvobJFcr-147" vertex="1">
          <mxGeometry x="58" width="57" height="40" as="geometry">
            <mxRectangle width="57" height="40" as="alternateBounds" />
          </mxGeometry>
        </mxCell>
        <mxCell id="ibi-GzNDX6ihbvobJFcr-150" value="b a EP" style="shape=partialRectangle;html=1;whiteSpace=wrap;connectable=0;strokeColor=inherit;overflow=hidden;fillColor=none;top=0;left=0;bottom=0;right=0;pointerEvents=1;fontSize=16;" parent="ibi-GzNDX6ihbvobJFcr-147" vertex="1">
          <mxGeometry x="115" width="58" height="40" as="geometry">
            <mxRectangle width="58" height="40" as="alternateBounds" />
          </mxGeometry>
        </mxCell>
        <mxCell id="ibi-GzNDX6ihbvobJFcr-156" value="a EP" style="shape=partialRectangle;html=1;whiteSpace=wrap;connectable=0;strokeColor=inherit;overflow=hidden;fillColor=none;top=0;left=0;bottom=0;right=0;pointerEvents=1;fontSize=16;" parent="ibi-GzNDX6ihbvobJFcr-147" vertex="1">
          <mxGeometry x="173" width="57" height="40" as="geometry">
            <mxRectangle width="57" height="40" as="alternateBounds" />
          </mxGeometry>
        </mxCell>
        <mxCell id="ibi-GzNDX6ihbvobJFcr-151" value="" style="shape=tableRow;horizontal=0;startSize=0;swimlaneHead=0;swimlaneBody=0;strokeColor=inherit;top=0;left=0;bottom=0;right=0;collapsible=0;dropTarget=0;fillColor=none;points=[[0,0.5],[1,0.5]];portConstraint=eastwest;fontSize=16;" parent="ibi-GzNDX6ihbvobJFcr-142" vertex="1">
          <mxGeometry y="110" width="230" height="40" as="geometry" />
        </mxCell>
        <mxCell id="ibi-GzNDX6ihbvobJFcr-152" value="Follow" style="shape=partialRectangle;html=1;whiteSpace=wrap;connectable=0;strokeColor=inherit;overflow=hidden;fillColor=none;top=0;left=0;bottom=0;right=0;pointerEvents=1;fontSize=16;" parent="ibi-GzNDX6ihbvobJFcr-151" vertex="1">
          <mxGeometry width="58" height="40" as="geometry">
            <mxRectangle width="58" height="40" as="alternateBounds" />
          </mxGeometry>
        </mxCell>
        <mxCell id="ibi-GzNDX6ihbvobJFcr-153" value="$" style="shape=partialRectangle;html=1;whiteSpace=wrap;connectable=0;strokeColor=inherit;overflow=hidden;fillColor=none;top=0;left=0;bottom=0;right=0;pointerEvents=1;fontSize=16;" parent="ibi-GzNDX6ihbvobJFcr-151" vertex="1">
          <mxGeometry x="58" width="57" height="40" as="geometry">
            <mxRectangle width="57" height="40" as="alternateBounds" />
          </mxGeometry>
        </mxCell>
        <mxCell id="ibi-GzNDX6ihbvobJFcr-154" value="$" style="shape=partialRectangle;html=1;whiteSpace=wrap;connectable=0;strokeColor=inherit;overflow=hidden;fillColor=none;top=0;left=0;bottom=0;right=0;pointerEvents=1;fontSize=16;" parent="ibi-GzNDX6ihbvobJFcr-151" vertex="1">
          <mxGeometry x="115" width="58" height="40" as="geometry">
            <mxRectangle width="58" height="40" as="alternateBounds" />
          </mxGeometry>
        </mxCell>
        <mxCell id="ibi-GzNDX6ihbvobJFcr-157" value="b a" style="shape=partialRectangle;html=1;whiteSpace=wrap;connectable=0;strokeColor=inherit;overflow=hidden;fillColor=none;top=0;left=0;bottom=0;right=0;pointerEvents=1;fontSize=16;" parent="ibi-GzNDX6ihbvobJFcr-151" vertex="1">
          <mxGeometry x="173" width="57" height="40" as="geometry">
            <mxRectangle width="57" height="40" as="alternateBounds" />
          </mxGeometry>
        </mxCell>
        <mxCell id="ibi-GzNDX6ihbvobJFcr-158" value="Parse Table" style="shape=table;startSize=30;container=1;collapsible=0;childLayout=tableLayout;strokeColor=default;fontSize=16;swimlaneFillColor=default;" parent="1" vertex="1">
          <mxGeometry x="30" y="335" width="420" height="270" as="geometry" />
        </mxCell>
        <mxCell id="ibi-GzNDX6ihbvobJFcr-159" value="" style="shape=tableRow;horizontal=0;startSize=0;swimlaneHead=0;swimlaneBody=0;strokeColor=inherit;top=0;left=0;bottom=0;right=0;collapsible=0;dropTarget=0;fillColor=none;points=[[0,0.5],[1,0.5]];portConstraint=eastwest;fontSize=16;" parent="ibi-GzNDX6ihbvobJFcr-158" vertex="1">
          <mxGeometry y="30" width="420" height="40" as="geometry" />
        </mxCell>
        <mxCell id="ibi-GzNDX6ihbvobJFcr-160" value="" style="shape=partialRectangle;html=1;whiteSpace=wrap;connectable=0;strokeColor=inherit;overflow=hidden;fillColor=none;top=0;left=0;bottom=0;right=0;pointerEvents=1;fontSize=16;" parent="ibi-GzNDX6ihbvobJFcr-159" vertex="1">
          <mxGeometry width="60" height="40" as="geometry">
            <mxRectangle width="60" height="40" as="alternateBounds" />
          </mxGeometry>
        </mxCell>
        <mxCell id="M9JLyXDeoK70wU_1un9L-53" value="S" style="shape=partialRectangle;html=1;whiteSpace=wrap;connectable=0;strokeColor=inherit;overflow=hidden;fillColor=none;top=0;left=0;bottom=0;right=0;pointerEvents=1;fontSize=16;" vertex="1" parent="ibi-GzNDX6ihbvobJFcr-159">
          <mxGeometry x="60" width="60" height="40" as="geometry">
            <mxRectangle width="60" height="40" as="alternateBounds" />
          </mxGeometry>
        </mxCell>
        <mxCell id="ibi-GzNDX6ihbvobJFcr-161" value="A" style="shape=partialRectangle;html=1;whiteSpace=wrap;connectable=0;strokeColor=inherit;overflow=hidden;fillColor=none;top=0;left=0;bottom=0;right=0;pointerEvents=1;fontSize=16;" parent="ibi-GzNDX6ihbvobJFcr-159" vertex="1">
          <mxGeometry x="120" width="60" height="40" as="geometry">
            <mxRectangle width="60" height="40" as="alternateBounds" />
          </mxGeometry>
        </mxCell>
        <mxCell id="ibi-GzNDX6ihbvobJFcr-162" value="B" style="shape=partialRectangle;html=1;whiteSpace=wrap;connectable=0;strokeColor=inherit;overflow=hidden;fillColor=none;top=0;left=0;bottom=0;right=0;pointerEvents=1;fontSize=16;" parent="ibi-GzNDX6ihbvobJFcr-159" vertex="1">
          <mxGeometry x="180" width="60" height="40" as="geometry">
            <mxRectangle width="60" height="40" as="alternateBounds" />
          </mxGeometry>
        </mxCell>
        <mxCell id="ibi-GzNDX6ihbvobJFcr-194" value="b" style="shape=partialRectangle;html=1;whiteSpace=wrap;connectable=0;strokeColor=inherit;overflow=hidden;fillColor=none;top=0;left=0;bottom=0;right=0;pointerEvents=1;fontSize=16;" parent="ibi-GzNDX6ihbvobJFcr-159" vertex="1">
          <mxGeometry x="240" width="60" height="40" as="geometry">
            <mxRectangle width="60" height="40" as="alternateBounds" />
          </mxGeometry>
        </mxCell>
        <mxCell id="ibi-GzNDX6ihbvobJFcr-191" value="a" style="shape=partialRectangle;html=1;whiteSpace=wrap;connectable=0;strokeColor=inherit;overflow=hidden;fillColor=none;top=0;left=0;bottom=0;right=0;pointerEvents=1;fontSize=16;" parent="ibi-GzNDX6ihbvobJFcr-159" vertex="1">
          <mxGeometry x="300" width="60" height="40" as="geometry">
            <mxRectangle width="60" height="40" as="alternateBounds" />
          </mxGeometry>
        </mxCell>
        <mxCell id="M9JLyXDeoK70wU_1un9L-47" value="$" style="shape=partialRectangle;html=1;whiteSpace=wrap;connectable=0;strokeColor=inherit;overflow=hidden;fillColor=none;top=0;left=0;bottom=0;right=0;pointerEvents=1;fontSize=16;" vertex="1" parent="ibi-GzNDX6ihbvobJFcr-159">
          <mxGeometry x="360" width="60" height="40" as="geometry">
            <mxRectangle width="60" height="40" as="alternateBounds" />
          </mxGeometry>
        </mxCell>
        <mxCell id="ibi-GzNDX6ihbvobJFcr-163" value="" style="shape=tableRow;horizontal=0;startSize=0;swimlaneHead=0;swimlaneBody=0;strokeColor=inherit;top=0;left=0;bottom=0;right=0;collapsible=0;dropTarget=0;fillColor=none;points=[[0,0.5],[1,0.5]];portConstraint=eastwest;fontSize=16;" parent="ibi-GzNDX6ihbvobJFcr-158" vertex="1">
          <mxGeometry y="70" width="420" height="40" as="geometry" />
        </mxCell>
        <mxCell id="ibi-GzNDX6ihbvobJFcr-164" value="0" style="shape=partialRectangle;html=1;whiteSpace=wrap;connectable=0;strokeColor=inherit;overflow=hidden;fillColor=none;top=0;left=0;bottom=0;right=0;pointerEvents=1;fontSize=16;" parent="ibi-GzNDX6ihbvobJFcr-163" vertex="1">
          <mxGeometry width="60" height="40" as="geometry">
            <mxRectangle width="60" height="40" as="alternateBounds" />
          </mxGeometry>
        </mxCell>
        <mxCell id="M9JLyXDeoK70wU_1un9L-54" value="A0" style="shape=partialRectangle;html=1;whiteSpace=wrap;connectable=0;strokeColor=inherit;overflow=hidden;fillColor=none;top=0;left=0;bottom=0;right=0;pointerEvents=1;fontSize=16;" vertex="1" parent="ibi-GzNDX6ihbvobJFcr-163">
          <mxGeometry x="60" width="60" height="40" as="geometry">
            <mxRectangle width="60" height="40" as="alternateBounds" />
          </mxGeometry>
        </mxCell>
        <mxCell id="ibi-GzNDX6ihbvobJFcr-165" value="G1" style="shape=partialRectangle;html=1;whiteSpace=wrap;connectable=0;strokeColor=inherit;overflow=hidden;fillColor=none;top=0;left=0;bottom=0;right=0;pointerEvents=1;fontSize=16;" parent="ibi-GzNDX6ihbvobJFcr-163" vertex="1">
          <mxGeometry x="120" width="60" height="40" as="geometry">
            <mxRectangle width="60" height="40" as="alternateBounds" />
          </mxGeometry>
        </mxCell>
        <mxCell id="ibi-GzNDX6ihbvobJFcr-166" value="G2" style="shape=partialRectangle;html=1;whiteSpace=wrap;connectable=0;strokeColor=inherit;overflow=hidden;fillColor=none;top=0;left=0;bottom=0;right=0;pointerEvents=1;fontSize=16;" parent="ibi-GzNDX6ihbvobJFcr-163" vertex="1">
          <mxGeometry x="180" width="60" height="40" as="geometry">
            <mxRectangle width="60" height="40" as="alternateBounds" />
          </mxGeometry>
        </mxCell>
        <mxCell id="ibi-GzNDX6ihbvobJFcr-195" value="R3" style="shape=partialRectangle;html=1;whiteSpace=wrap;connectable=0;strokeColor=inherit;overflow=hidden;fillColor=none;top=0;left=0;bottom=0;right=0;pointerEvents=1;fontSize=16;" parent="ibi-GzNDX6ihbvobJFcr-163" vertex="1">
          <mxGeometry x="240" width="60" height="40" as="geometry">
            <mxRectangle width="60" height="40" as="alternateBounds" />
          </mxGeometry>
        </mxCell>
        <mxCell id="ibi-GzNDX6ihbvobJFcr-192" value="R3" style="shape=partialRectangle;html=1;whiteSpace=wrap;connectable=0;strokeColor=inherit;overflow=hidden;fillColor=none;top=0;left=0;bottom=0;right=0;pointerEvents=1;fontSize=16;" parent="ibi-GzNDX6ihbvobJFcr-163" vertex="1">
          <mxGeometry x="300" width="60" height="40" as="geometry">
            <mxRectangle width="60" height="40" as="alternateBounds" />
          </mxGeometry>
        </mxCell>
        <mxCell id="M9JLyXDeoK70wU_1un9L-48" style="shape=partialRectangle;html=1;whiteSpace=wrap;connectable=0;strokeColor=inherit;overflow=hidden;fillColor=none;top=0;left=0;bottom=0;right=0;pointerEvents=1;fontSize=16;" vertex="1" parent="ibi-GzNDX6ihbvobJFcr-163">
          <mxGeometry x="360" width="60" height="40" as="geometry">
            <mxRectangle width="60" height="40" as="alternateBounds" />
          </mxGeometry>
        </mxCell>
        <mxCell id="ibi-GzNDX6ihbvobJFcr-167" value="" style="shape=tableRow;horizontal=0;startSize=0;swimlaneHead=0;swimlaneBody=0;strokeColor=inherit;top=0;left=0;bottom=0;right=0;collapsible=0;dropTarget=0;fillColor=none;points=[[0,0.5],[1,0.5]];portConstraint=eastwest;fontSize=16;" parent="ibi-GzNDX6ihbvobJFcr-158" vertex="1">
          <mxGeometry y="110" width="420" height="40" as="geometry" />
        </mxCell>
        <mxCell id="ibi-GzNDX6ihbvobJFcr-168" value="1" style="shape=partialRectangle;html=1;whiteSpace=wrap;connectable=0;strokeColor=inherit;overflow=hidden;fillColor=none;top=0;left=0;bottom=0;right=0;pointerEvents=1;fontSize=16;" parent="ibi-GzNDX6ihbvobJFcr-167" vertex="1">
          <mxGeometry width="60" height="40" as="geometry">
            <mxRectangle width="60" height="40" as="alternateBounds" />
          </mxGeometry>
        </mxCell>
        <mxCell id="M9JLyXDeoK70wU_1un9L-55" style="shape=partialRectangle;html=1;whiteSpace=wrap;connectable=0;strokeColor=inherit;overflow=hidden;fillColor=none;top=0;left=0;bottom=0;right=0;pointerEvents=1;fontSize=16;" vertex="1" parent="ibi-GzNDX6ihbvobJFcr-167">
          <mxGeometry x="60" width="60" height="40" as="geometry">
            <mxRectangle width="60" height="40" as="alternateBounds" />
          </mxGeometry>
        </mxCell>
        <mxCell id="ibi-GzNDX6ihbvobJFcr-169" value="" style="shape=partialRectangle;html=1;whiteSpace=wrap;connectable=0;strokeColor=inherit;overflow=hidden;fillColor=none;top=0;left=0;bottom=0;right=0;pointerEvents=1;fontSize=16;" parent="ibi-GzNDX6ihbvobJFcr-167" vertex="1">
          <mxGeometry x="120" width="60" height="40" as="geometry">
            <mxRectangle width="60" height="40" as="alternateBounds" />
          </mxGeometry>
        </mxCell>
        <mxCell id="ibi-GzNDX6ihbvobJFcr-170" value="" style="shape=partialRectangle;html=1;whiteSpace=wrap;connectable=0;strokeColor=inherit;overflow=hidden;fillColor=none;top=0;left=0;bottom=0;right=0;pointerEvents=1;fontSize=16;" parent="ibi-GzNDX6ihbvobJFcr-167" vertex="1">
          <mxGeometry x="180" width="60" height="40" as="geometry">
            <mxRectangle width="60" height="40" as="alternateBounds" />
          </mxGeometry>
        </mxCell>
        <mxCell id="ibi-GzNDX6ihbvobJFcr-196" value="" style="shape=partialRectangle;html=1;whiteSpace=wrap;connectable=0;strokeColor=inherit;overflow=hidden;fillColor=none;top=0;left=0;bottom=0;right=0;pointerEvents=1;fontSize=16;" parent="ibi-GzNDX6ihbvobJFcr-167" vertex="1">
          <mxGeometry x="240" width="60" height="40" as="geometry">
            <mxRectangle width="60" height="40" as="alternateBounds" />
          </mxGeometry>
        </mxCell>
        <mxCell id="ibi-GzNDX6ihbvobJFcr-193" value="" style="shape=partialRectangle;html=1;whiteSpace=wrap;connectable=0;strokeColor=inherit;overflow=hidden;fillColor=none;top=0;left=0;bottom=0;right=0;pointerEvents=1;fontSize=16;" parent="ibi-GzNDX6ihbvobJFcr-167" vertex="1">
          <mxGeometry x="300" width="60" height="40" as="geometry">
            <mxRectangle width="60" height="40" as="alternateBounds" />
          </mxGeometry>
        </mxCell>
        <mxCell id="M9JLyXDeoK70wU_1un9L-49" value="R0" style="shape=partialRectangle;html=1;whiteSpace=wrap;connectable=0;strokeColor=inherit;overflow=hidden;fillColor=none;top=0;left=0;bottom=0;right=0;pointerEvents=1;fontSize=16;" vertex="1" parent="ibi-GzNDX6ihbvobJFcr-167">
          <mxGeometry x="360" width="60" height="40" as="geometry">
            <mxRectangle width="60" height="40" as="alternateBounds" />
          </mxGeometry>
        </mxCell>
        <mxCell id="ibi-GzNDX6ihbvobJFcr-200" style="shape=tableRow;horizontal=0;startSize=0;swimlaneHead=0;swimlaneBody=0;strokeColor=inherit;top=0;left=0;bottom=0;right=0;collapsible=0;dropTarget=0;fillColor=none;points=[[0,0.5],[1,0.5]];portConstraint=eastwest;fontSize=16;" parent="ibi-GzNDX6ihbvobJFcr-158" vertex="1">
          <mxGeometry y="150" width="420" height="40" as="geometry" />
        </mxCell>
        <mxCell id="ibi-GzNDX6ihbvobJFcr-201" value="2" style="shape=partialRectangle;html=1;whiteSpace=wrap;connectable=0;strokeColor=inherit;overflow=hidden;fillColor=none;top=0;left=0;bottom=0;right=0;pointerEvents=1;fontSize=16;" parent="ibi-GzNDX6ihbvobJFcr-200" vertex="1">
          <mxGeometry width="60" height="40" as="geometry">
            <mxRectangle width="60" height="40" as="alternateBounds" />
          </mxGeometry>
        </mxCell>
        <mxCell id="M9JLyXDeoK70wU_1un9L-56" style="shape=partialRectangle;html=1;whiteSpace=wrap;connectable=0;strokeColor=inherit;overflow=hidden;fillColor=none;top=0;left=0;bottom=0;right=0;pointerEvents=1;fontSize=16;" vertex="1" parent="ibi-GzNDX6ihbvobJFcr-200">
          <mxGeometry x="60" width="60" height="40" as="geometry">
            <mxRectangle width="60" height="40" as="alternateBounds" />
          </mxGeometry>
        </mxCell>
        <mxCell id="ibi-GzNDX6ihbvobJFcr-202" value="" style="shape=partialRectangle;html=1;whiteSpace=wrap;connectable=0;strokeColor=inherit;overflow=hidden;fillColor=none;top=0;left=0;bottom=0;right=0;pointerEvents=1;fontSize=16;" parent="ibi-GzNDX6ihbvobJFcr-200" vertex="1">
          <mxGeometry x="120" width="60" height="40" as="geometry">
            <mxRectangle width="60" height="40" as="alternateBounds" />
          </mxGeometry>
        </mxCell>
        <mxCell id="ibi-GzNDX6ihbvobJFcr-203" value="" style="shape=partialRectangle;html=1;whiteSpace=wrap;connectable=0;strokeColor=inherit;overflow=hidden;fillColor=none;top=0;left=0;bottom=0;right=0;pointerEvents=1;fontSize=16;" parent="ibi-GzNDX6ihbvobJFcr-200" vertex="1">
          <mxGeometry x="180" width="60" height="40" as="geometry">
            <mxRectangle width="60" height="40" as="alternateBounds" />
          </mxGeometry>
        </mxCell>
        <mxCell id="ibi-GzNDX6ihbvobJFcr-204" value="S3" style="shape=partialRectangle;html=1;whiteSpace=wrap;connectable=0;strokeColor=inherit;overflow=hidden;fillColor=none;top=0;left=0;bottom=0;right=0;pointerEvents=1;fontSize=16;" parent="ibi-GzNDX6ihbvobJFcr-200" vertex="1">
          <mxGeometry x="240" width="60" height="40" as="geometry">
            <mxRectangle width="60" height="40" as="alternateBounds" />
          </mxGeometry>
        </mxCell>
        <mxCell id="ibi-GzNDX6ihbvobJFcr-205" value="S4" style="shape=partialRectangle;html=1;whiteSpace=wrap;connectable=0;strokeColor=inherit;overflow=hidden;fillColor=none;top=0;left=0;bottom=0;right=0;pointerEvents=1;fontSize=16;" parent="ibi-GzNDX6ihbvobJFcr-200" vertex="1">
          <mxGeometry x="300" width="60" height="40" as="geometry">
            <mxRectangle width="60" height="40" as="alternateBounds" />
          </mxGeometry>
        </mxCell>
        <mxCell id="M9JLyXDeoK70wU_1un9L-50" style="shape=partialRectangle;html=1;whiteSpace=wrap;connectable=0;strokeColor=inherit;overflow=hidden;fillColor=none;top=0;left=0;bottom=0;right=0;pointerEvents=1;fontSize=16;" vertex="1" parent="ibi-GzNDX6ihbvobJFcr-200">
          <mxGeometry x="360" width="60" height="40" as="geometry">
            <mxRectangle width="60" height="40" as="alternateBounds" />
          </mxGeometry>
        </mxCell>
        <mxCell id="ibi-GzNDX6ihbvobJFcr-209" style="shape=tableRow;horizontal=0;startSize=0;swimlaneHead=0;swimlaneBody=0;strokeColor=inherit;top=0;left=0;bottom=0;right=0;collapsible=0;dropTarget=0;fillColor=none;points=[[0,0.5],[1,0.5]];portConstraint=eastwest;fontSize=16;" parent="ibi-GzNDX6ihbvobJFcr-158" vertex="1">
          <mxGeometry y="190" width="420" height="40" as="geometry" />
        </mxCell>
        <mxCell id="ibi-GzNDX6ihbvobJFcr-210" value="3" style="shape=partialRectangle;html=1;whiteSpace=wrap;connectable=0;strokeColor=inherit;overflow=hidden;fillColor=none;top=0;left=0;bottom=0;right=0;pointerEvents=1;fontSize=16;" parent="ibi-GzNDX6ihbvobJFcr-209" vertex="1">
          <mxGeometry width="60" height="40" as="geometry">
            <mxRectangle width="60" height="40" as="alternateBounds" />
          </mxGeometry>
        </mxCell>
        <mxCell id="M9JLyXDeoK70wU_1un9L-57" style="shape=partialRectangle;html=1;whiteSpace=wrap;connectable=0;strokeColor=inherit;overflow=hidden;fillColor=none;top=0;left=0;bottom=0;right=0;pointerEvents=1;fontSize=16;" vertex="1" parent="ibi-GzNDX6ihbvobJFcr-209">
          <mxGeometry x="60" width="60" height="40" as="geometry">
            <mxRectangle width="60" height="40" as="alternateBounds" />
          </mxGeometry>
        </mxCell>
        <mxCell id="ibi-GzNDX6ihbvobJFcr-211" value="" style="shape=partialRectangle;html=1;whiteSpace=wrap;connectable=0;strokeColor=inherit;overflow=hidden;fillColor=none;top=0;left=0;bottom=0;right=0;pointerEvents=1;fontSize=16;" parent="ibi-GzNDX6ihbvobJFcr-209" vertex="1">
          <mxGeometry x="120" width="60" height="40" as="geometry">
            <mxRectangle width="60" height="40" as="alternateBounds" />
          </mxGeometry>
        </mxCell>
        <mxCell id="ibi-GzNDX6ihbvobJFcr-212" value="" style="shape=partialRectangle;html=1;whiteSpace=wrap;connectable=0;strokeColor=inherit;overflow=hidden;fillColor=none;top=0;left=0;bottom=0;right=0;pointerEvents=1;fontSize=16;" parent="ibi-GzNDX6ihbvobJFcr-209" vertex="1">
          <mxGeometry x="180" width="60" height="40" as="geometry">
            <mxRectangle width="60" height="40" as="alternateBounds" />
          </mxGeometry>
        </mxCell>
        <mxCell id="ibi-GzNDX6ihbvobJFcr-213" value="" style="shape=partialRectangle;html=1;whiteSpace=wrap;connectable=0;strokeColor=inherit;overflow=hidden;fillColor=none;top=0;left=0;bottom=0;right=0;pointerEvents=1;fontSize=16;" parent="ibi-GzNDX6ihbvobJFcr-209" vertex="1">
          <mxGeometry x="240" width="60" height="40" as="geometry">
            <mxRectangle width="60" height="40" as="alternateBounds" />
          </mxGeometry>
        </mxCell>
        <mxCell id="ibi-GzNDX6ihbvobJFcr-214" value="" style="shape=partialRectangle;html=1;whiteSpace=wrap;connectable=0;strokeColor=inherit;overflow=hidden;fillColor=none;top=0;left=0;bottom=0;right=0;pointerEvents=1;fontSize=16;" parent="ibi-GzNDX6ihbvobJFcr-209" vertex="1">
          <mxGeometry x="300" width="60" height="40" as="geometry">
            <mxRectangle width="60" height="40" as="alternateBounds" />
          </mxGeometry>
        </mxCell>
        <mxCell id="M9JLyXDeoK70wU_1un9L-51" value="R1" style="shape=partialRectangle;html=1;whiteSpace=wrap;connectable=0;strokeColor=inherit;overflow=hidden;fillColor=none;top=0;left=0;bottom=0;right=0;pointerEvents=1;fontSize=16;" vertex="1" parent="ibi-GzNDX6ihbvobJFcr-209">
          <mxGeometry x="360" width="60" height="40" as="geometry">
            <mxRectangle width="60" height="40" as="alternateBounds" />
          </mxGeometry>
        </mxCell>
        <mxCell id="ibi-GzNDX6ihbvobJFcr-218" style="shape=tableRow;horizontal=0;startSize=0;swimlaneHead=0;swimlaneBody=0;strokeColor=inherit;top=0;left=0;bottom=0;right=0;collapsible=0;dropTarget=0;fillColor=none;points=[[0,0.5],[1,0.5]];portConstraint=eastwest;fontSize=16;" parent="ibi-GzNDX6ihbvobJFcr-158" vertex="1">
          <mxGeometry y="230" width="420" height="40" as="geometry" />
        </mxCell>
        <mxCell id="ibi-GzNDX6ihbvobJFcr-219" value="4" style="shape=partialRectangle;html=1;whiteSpace=wrap;connectable=0;strokeColor=inherit;overflow=hidden;fillColor=none;top=0;left=0;bottom=0;right=0;pointerEvents=1;fontSize=16;" parent="ibi-GzNDX6ihbvobJFcr-218" vertex="1">
          <mxGeometry width="60" height="40" as="geometry">
            <mxRectangle width="60" height="40" as="alternateBounds" />
          </mxGeometry>
        </mxCell>
        <mxCell id="M9JLyXDeoK70wU_1un9L-58" style="shape=partialRectangle;html=1;whiteSpace=wrap;connectable=0;strokeColor=inherit;overflow=hidden;fillColor=none;top=0;left=0;bottom=0;right=0;pointerEvents=1;fontSize=16;" vertex="1" parent="ibi-GzNDX6ihbvobJFcr-218">
          <mxGeometry x="60" width="60" height="40" as="geometry">
            <mxRectangle width="60" height="40" as="alternateBounds" />
          </mxGeometry>
        </mxCell>
        <mxCell id="ibi-GzNDX6ihbvobJFcr-220" value="" style="shape=partialRectangle;html=1;whiteSpace=wrap;connectable=0;strokeColor=inherit;overflow=hidden;fillColor=none;top=0;left=0;bottom=0;right=0;pointerEvents=1;fontSize=16;" parent="ibi-GzNDX6ihbvobJFcr-218" vertex="1">
          <mxGeometry x="120" width="60" height="40" as="geometry">
            <mxRectangle width="60" height="40" as="alternateBounds" />
          </mxGeometry>
        </mxCell>
        <mxCell id="ibi-GzNDX6ihbvobJFcr-221" value="" style="shape=partialRectangle;html=1;whiteSpace=wrap;connectable=0;strokeColor=inherit;overflow=hidden;fillColor=none;top=0;left=0;bottom=0;right=0;pointerEvents=1;fontSize=16;" parent="ibi-GzNDX6ihbvobJFcr-218" vertex="1">
          <mxGeometry x="180" width="60" height="40" as="geometry">
            <mxRectangle width="60" height="40" as="alternateBounds" />
          </mxGeometry>
        </mxCell>
        <mxCell id="ibi-GzNDX6ihbvobJFcr-222" value="R2" style="shape=partialRectangle;html=1;whiteSpace=wrap;connectable=0;strokeColor=inherit;overflow=hidden;fillColor=none;top=0;left=0;bottom=0;right=0;pointerEvents=1;fontSize=16;" parent="ibi-GzNDX6ihbvobJFcr-218" vertex="1">
          <mxGeometry x="240" width="60" height="40" as="geometry">
            <mxRectangle width="60" height="40" as="alternateBounds" />
          </mxGeometry>
        </mxCell>
        <mxCell id="ibi-GzNDX6ihbvobJFcr-223" value="R2" style="shape=partialRectangle;html=1;whiteSpace=wrap;connectable=0;strokeColor=inherit;overflow=hidden;fillColor=none;top=0;left=0;bottom=0;right=0;pointerEvents=1;fontSize=16;" parent="ibi-GzNDX6ihbvobJFcr-218" vertex="1">
          <mxGeometry x="300" width="60" height="40" as="geometry">
            <mxRectangle width="60" height="40" as="alternateBounds" />
          </mxGeometry>
        </mxCell>
        <mxCell id="M9JLyXDeoK70wU_1un9L-52" style="shape=partialRectangle;html=1;whiteSpace=wrap;connectable=0;strokeColor=inherit;overflow=hidden;fillColor=none;top=0;left=0;bottom=0;right=0;pointerEvents=1;fontSize=16;" vertex="1" parent="ibi-GzNDX6ihbvobJFcr-218">
          <mxGeometry x="360" width="60" height="40" as="geometry">
            <mxRectangle width="60" height="40" as="alternateBounds" />
          </mxGeometry>
        </mxCell>
        <mxCell id="ibi-GzNDX6ihbvobJFcr-272" value="Rules" style="shape=table;startSize=30;container=1;collapsible=0;childLayout=tableLayout;strokeColor=default;fontSize=16;swimlaneFillColor=default;" parent="1" vertex="1">
          <mxGeometry x="420" y="19" width="150" height="190" as="geometry" />
        </mxCell>
        <mxCell id="ibi-GzNDX6ihbvobJFcr-273" value="" style="shape=tableRow;horizontal=0;startSize=0;swimlaneHead=0;swimlaneBody=0;strokeColor=inherit;top=0;left=0;bottom=0;right=0;collapsible=0;dropTarget=0;fillColor=none;points=[[0,0.5],[1,0.5]];portConstraint=eastwest;fontSize=16;" parent="ibi-GzNDX6ihbvobJFcr-272" vertex="1">
          <mxGeometry y="30" width="150" height="40" as="geometry" />
        </mxCell>
        <mxCell id="ibi-GzNDX6ihbvobJFcr-274" value="0" style="shape=partialRectangle;html=1;whiteSpace=wrap;connectable=0;strokeColor=inherit;overflow=hidden;fillColor=none;top=0;left=0;bottom=0;right=0;pointerEvents=1;fontSize=16;" parent="ibi-GzNDX6ihbvobJFcr-273" vertex="1">
          <mxGeometry width="32" height="40" as="geometry">
            <mxRectangle width="32" height="40" as="alternateBounds" />
          </mxGeometry>
        </mxCell>
        <mxCell id="ibi-GzNDX6ihbvobJFcr-275" value="S -&amp;gt; A" style="shape=partialRectangle;html=1;whiteSpace=wrap;connectable=0;strokeColor=inherit;overflow=hidden;fillColor=none;top=0;left=0;bottom=0;right=0;pointerEvents=1;fontSize=16;align=left;" parent="ibi-GzNDX6ihbvobJFcr-273" vertex="1">
          <mxGeometry x="32" width="118" height="40" as="geometry">
            <mxRectangle width="118" height="40" as="alternateBounds" />
          </mxGeometry>
        </mxCell>
        <mxCell id="ibi-GzNDX6ihbvobJFcr-277" value="" style="shape=tableRow;horizontal=0;startSize=0;swimlaneHead=0;swimlaneBody=0;strokeColor=inherit;top=0;left=0;bottom=0;right=0;collapsible=0;dropTarget=0;fillColor=none;points=[[0,0.5],[1,0.5]];portConstraint=eastwest;fontSize=16;" parent="ibi-GzNDX6ihbvobJFcr-272" vertex="1">
          <mxGeometry y="70" width="150" height="40" as="geometry" />
        </mxCell>
        <mxCell id="ibi-GzNDX6ihbvobJFcr-278" value="1" style="shape=partialRectangle;html=1;whiteSpace=wrap;connectable=0;strokeColor=inherit;overflow=hidden;fillColor=none;top=0;left=0;bottom=0;right=0;pointerEvents=1;fontSize=16;" parent="ibi-GzNDX6ihbvobJFcr-277" vertex="1">
          <mxGeometry width="32" height="40" as="geometry">
            <mxRectangle width="32" height="40" as="alternateBounds" />
          </mxGeometry>
        </mxCell>
        <mxCell id="ibi-GzNDX6ihbvobJFcr-279" value="A -&amp;gt; B b" style="shape=partialRectangle;html=1;whiteSpace=wrap;connectable=0;strokeColor=inherit;overflow=hidden;fillColor=none;top=0;left=0;bottom=0;right=0;pointerEvents=1;fontSize=16;align=left;" parent="ibi-GzNDX6ihbvobJFcr-277" vertex="1">
          <mxGeometry x="32" width="118" height="40" as="geometry">
            <mxRectangle width="118" height="40" as="alternateBounds" />
          </mxGeometry>
        </mxCell>
        <mxCell id="ibi-GzNDX6ihbvobJFcr-281" value="" style="shape=tableRow;horizontal=0;startSize=0;swimlaneHead=0;swimlaneBody=0;strokeColor=inherit;top=0;left=0;bottom=0;right=0;collapsible=0;dropTarget=0;fillColor=none;points=[[0,0.5],[1,0.5]];portConstraint=eastwest;fontSize=16;" parent="ibi-GzNDX6ihbvobJFcr-272" vertex="1">
          <mxGeometry y="110" width="150" height="40" as="geometry" />
        </mxCell>
        <mxCell id="ibi-GzNDX6ihbvobJFcr-282" value="2" style="shape=partialRectangle;html=1;whiteSpace=wrap;connectable=0;strokeColor=inherit;overflow=hidden;fillColor=none;top=0;left=0;bottom=0;right=0;pointerEvents=1;fontSize=16;" parent="ibi-GzNDX6ihbvobJFcr-281" vertex="1">
          <mxGeometry width="32" height="40" as="geometry">
            <mxRectangle width="32" height="40" as="alternateBounds" />
          </mxGeometry>
        </mxCell>
        <mxCell id="ibi-GzNDX6ihbvobJFcr-283" value="B -&amp;gt; B a" style="shape=partialRectangle;html=1;whiteSpace=wrap;connectable=0;strokeColor=inherit;overflow=hidden;fillColor=none;top=0;left=0;bottom=0;right=0;pointerEvents=1;fontSize=16;align=left;" parent="ibi-GzNDX6ihbvobJFcr-281" vertex="1">
          <mxGeometry x="32" width="118" height="40" as="geometry">
            <mxRectangle width="118" height="40" as="alternateBounds" />
          </mxGeometry>
        </mxCell>
        <mxCell id="ibi-GzNDX6ihbvobJFcr-285" value="" style="shape=tableRow;horizontal=0;startSize=0;swimlaneHead=0;swimlaneBody=0;strokeColor=inherit;top=0;left=0;bottom=0;right=0;collapsible=0;dropTarget=0;fillColor=none;points=[[0,0.5],[1,0.5]];portConstraint=eastwest;fontSize=16;" parent="ibi-GzNDX6ihbvobJFcr-272" vertex="1">
          <mxGeometry y="150" width="150" height="40" as="geometry" />
        </mxCell>
        <mxCell id="ibi-GzNDX6ihbvobJFcr-286" value="3" style="shape=partialRectangle;html=1;whiteSpace=wrap;connectable=0;strokeColor=inherit;overflow=hidden;fillColor=none;top=0;left=0;bottom=0;right=0;pointerEvents=1;fontSize=16;" parent="ibi-GzNDX6ihbvobJFcr-285" vertex="1">
          <mxGeometry width="32" height="40" as="geometry">
            <mxRectangle width="32" height="40" as="alternateBounds" />
          </mxGeometry>
        </mxCell>
        <mxCell id="ibi-GzNDX6ihbvobJFcr-287" value="B -&amp;gt; EMPTY" style="shape=partialRectangle;html=1;whiteSpace=wrap;connectable=0;strokeColor=inherit;overflow=hidden;fillColor=none;top=0;left=0;bottom=0;right=0;pointerEvents=1;fontSize=16;align=left;" parent="ibi-GzNDX6ihbvobJFcr-285" vertex="1">
          <mxGeometry x="32" width="118" height="40" as="geometry">
            <mxRectangle width="118" height="40" as="alternateBounds" />
          </mxGeometry>
        </mxCell>
        <mxCell id="zrLHYjm0IWK0QL-57Pdi-1" value="" style="childLayout=tableLayout;recursiveResize=0;shadow=0;fillColor=default;" parent="1" vertex="1">
          <mxGeometry x="20" y="20" width="150" height="137" as="geometry" />
        </mxCell>
        <mxCell id="zrLHYjm0IWK0QL-57Pdi-2" value="" style="shape=tableRow;horizontal=0;startSize=0;swimlaneHead=0;swimlaneBody=0;top=0;left=0;bottom=0;right=0;dropTarget=0;collapsible=0;recursiveResize=0;expand=0;fontStyle=0;fillColor=none;strokeColor=inherit;" parent="zrLHYjm0IWK0QL-57Pdi-1" vertex="1">
          <mxGeometry width="150" height="25" as="geometry" />
        </mxCell>
        <mxCell id="zrLHYjm0IWK0QL-57Pdi-3" value="0" style="connectable=0;recursiveResize=0;strokeColor=inherit;fillColor=none;align=center;whiteSpace=wrap;html=1;" parent="zrLHYjm0IWK0QL-57Pdi-2" vertex="1">
          <mxGeometry width="80" height="25" as="geometry">
            <mxRectangle width="80" height="25" as="alternateBounds" />
          </mxGeometry>
        </mxCell>
        <mxCell id="zrLHYjm0IWK0QL-57Pdi-4" value="LA" style="connectable=0;recursiveResize=0;strokeColor=inherit;fillColor=none;align=center;whiteSpace=wrap;html=1;" parent="zrLHYjm0IWK0QL-57Pdi-2" vertex="1">
          <mxGeometry x="80" width="70" height="25" as="geometry">
            <mxRectangle width="70" height="25" as="alternateBounds" />
          </mxGeometry>
        </mxCell>
        <mxCell id="zrLHYjm0IWK0QL-57Pdi-5" style="shape=tableRow;horizontal=0;startSize=0;swimlaneHead=0;swimlaneBody=0;top=0;left=0;bottom=0;right=0;dropTarget=0;collapsible=0;recursiveResize=0;expand=0;fontStyle=0;fillColor=none;strokeColor=inherit;" parent="zrLHYjm0IWK0QL-57Pdi-1" vertex="1">
          <mxGeometry y="25" width="150" height="28" as="geometry" />
        </mxCell>
        <mxCell id="zrLHYjm0IWK0QL-57Pdi-6" value="S -&amp;gt; . A" style="connectable=0;recursiveResize=0;strokeColor=inherit;fillColor=none;align=center;whiteSpace=wrap;html=1;" parent="zrLHYjm0IWK0QL-57Pdi-5" vertex="1">
          <mxGeometry width="80" height="28" as="geometry">
            <mxRectangle width="80" height="28" as="alternateBounds" />
          </mxGeometry>
        </mxCell>
        <mxCell id="zrLHYjm0IWK0QL-57Pdi-7" value="$" style="connectable=0;recursiveResize=0;strokeColor=inherit;fillColor=none;align=center;whiteSpace=wrap;html=1;" parent="zrLHYjm0IWK0QL-57Pdi-5" vertex="1">
          <mxGeometry x="80" width="70" height="28" as="geometry">
            <mxRectangle width="70" height="28" as="alternateBounds" />
          </mxGeometry>
        </mxCell>
        <mxCell id="zrLHYjm0IWK0QL-57Pdi-8" style="shape=tableRow;horizontal=0;startSize=0;swimlaneHead=0;swimlaneBody=0;top=0;left=0;bottom=0;right=0;dropTarget=0;collapsible=0;recursiveResize=0;expand=0;fontStyle=0;fillColor=none;strokeColor=inherit;" parent="zrLHYjm0IWK0QL-57Pdi-1" vertex="1">
          <mxGeometry y="53" width="150" height="28" as="geometry" />
        </mxCell>
        <mxCell id="zrLHYjm0IWK0QL-57Pdi-9" value="A -&amp;gt; . B b" style="connectable=0;recursiveResize=0;strokeColor=inherit;fillColor=none;align=center;whiteSpace=wrap;html=1;" parent="zrLHYjm0IWK0QL-57Pdi-8" vertex="1">
          <mxGeometry width="80" height="28" as="geometry">
            <mxRectangle width="80" height="28" as="alternateBounds" />
          </mxGeometry>
        </mxCell>
        <mxCell id="zrLHYjm0IWK0QL-57Pdi-10" value="$" style="connectable=0;recursiveResize=0;strokeColor=inherit;fillColor=none;align=center;whiteSpace=wrap;html=1;" parent="zrLHYjm0IWK0QL-57Pdi-8" vertex="1">
          <mxGeometry x="80" width="70" height="28" as="geometry">
            <mxRectangle width="70" height="28" as="alternateBounds" />
          </mxGeometry>
        </mxCell>
        <mxCell id="zrLHYjm0IWK0QL-57Pdi-11" style="shape=tableRow;horizontal=0;startSize=0;swimlaneHead=0;swimlaneBody=0;top=0;left=0;bottom=0;right=0;dropTarget=0;collapsible=0;recursiveResize=0;expand=0;fontStyle=0;fillColor=none;strokeColor=inherit;" parent="zrLHYjm0IWK0QL-57Pdi-1" vertex="1">
          <mxGeometry y="81" width="150" height="28" as="geometry" />
        </mxCell>
        <mxCell id="zrLHYjm0IWK0QL-57Pdi-12" value="B -&amp;gt; . B a" style="connectable=0;recursiveResize=0;strokeColor=inherit;fillColor=none;align=center;whiteSpace=wrap;html=1;" parent="zrLHYjm0IWK0QL-57Pdi-11" vertex="1">
          <mxGeometry width="80" height="28" as="geometry">
            <mxRectangle width="80" height="28" as="alternateBounds" />
          </mxGeometry>
        </mxCell>
        <mxCell id="zrLHYjm0IWK0QL-57Pdi-13" value="a b" style="connectable=0;recursiveResize=0;strokeColor=inherit;fillColor=none;align=center;whiteSpace=wrap;html=1;" parent="zrLHYjm0IWK0QL-57Pdi-11" vertex="1">
          <mxGeometry x="80" width="70" height="28" as="geometry">
            <mxRectangle width="70" height="28" as="alternateBounds" />
          </mxGeometry>
        </mxCell>
        <mxCell id="zrLHYjm0IWK0QL-57Pdi-14" style="shape=tableRow;horizontal=0;startSize=0;swimlaneHead=0;swimlaneBody=0;top=0;left=0;bottom=0;right=0;dropTarget=0;collapsible=0;recursiveResize=0;expand=0;fontStyle=0;fillColor=none;strokeColor=inherit;" parent="zrLHYjm0IWK0QL-57Pdi-1" vertex="1">
          <mxGeometry y="109" width="150" height="28" as="geometry" />
        </mxCell>
        <mxCell id="zrLHYjm0IWK0QL-57Pdi-15" value="B -&amp;gt; .&amp;nbsp;" style="connectable=0;recursiveResize=0;strokeColor=inherit;fillColor=none;align=center;whiteSpace=wrap;html=1;" parent="zrLHYjm0IWK0QL-57Pdi-14" vertex="1">
          <mxGeometry width="80" height="28" as="geometry">
            <mxRectangle width="80" height="28" as="alternateBounds" />
          </mxGeometry>
        </mxCell>
        <mxCell id="zrLHYjm0IWK0QL-57Pdi-16" value="a b" style="connectable=0;recursiveResize=0;strokeColor=inherit;fillColor=none;align=center;whiteSpace=wrap;html=1;" parent="zrLHYjm0IWK0QL-57Pdi-14" vertex="1">
          <mxGeometry x="80" width="70" height="28" as="geometry">
            <mxRectangle width="70" height="28" as="alternateBounds" />
          </mxGeometry>
        </mxCell>
        <mxCell id="M9JLyXDeoK70wU_1un9L-1" value="" style="childLayout=tableLayout;recursiveResize=0;shadow=0;fillColor=default;" vertex="1" parent="1">
          <mxGeometry x="240" y="20" width="150" height="53" as="geometry" />
        </mxCell>
        <mxCell id="M9JLyXDeoK70wU_1un9L-2" value="" style="shape=tableRow;horizontal=0;startSize=0;swimlaneHead=0;swimlaneBody=0;top=0;left=0;bottom=0;right=0;dropTarget=0;collapsible=0;recursiveResize=0;expand=0;fontStyle=0;fillColor=none;strokeColor=inherit;" vertex="1" parent="M9JLyXDeoK70wU_1un9L-1">
          <mxGeometry width="150" height="25" as="geometry" />
        </mxCell>
        <mxCell id="M9JLyXDeoK70wU_1un9L-3" value="1" style="connectable=0;recursiveResize=0;strokeColor=inherit;fillColor=none;align=center;whiteSpace=wrap;html=1;" vertex="1" parent="M9JLyXDeoK70wU_1un9L-2">
          <mxGeometry width="80" height="25" as="geometry">
            <mxRectangle width="80" height="25" as="alternateBounds" />
          </mxGeometry>
        </mxCell>
        <mxCell id="M9JLyXDeoK70wU_1un9L-4" value="LA" style="connectable=0;recursiveResize=0;strokeColor=inherit;fillColor=none;align=center;whiteSpace=wrap;html=1;" vertex="1" parent="M9JLyXDeoK70wU_1un9L-2">
          <mxGeometry x="80" width="70" height="25" as="geometry">
            <mxRectangle width="70" height="25" as="alternateBounds" />
          </mxGeometry>
        </mxCell>
        <mxCell id="M9JLyXDeoK70wU_1un9L-5" style="shape=tableRow;horizontal=0;startSize=0;swimlaneHead=0;swimlaneBody=0;top=0;left=0;bottom=0;right=0;dropTarget=0;collapsible=0;recursiveResize=0;expand=0;fontStyle=0;fillColor=none;strokeColor=inherit;" vertex="1" parent="M9JLyXDeoK70wU_1un9L-1">
          <mxGeometry y="25" width="150" height="28" as="geometry" />
        </mxCell>
        <mxCell id="M9JLyXDeoK70wU_1un9L-6" value="S -&amp;gt; A ." style="connectable=0;recursiveResize=0;strokeColor=inherit;fillColor=none;align=center;whiteSpace=wrap;html=1;" vertex="1" parent="M9JLyXDeoK70wU_1un9L-5">
          <mxGeometry width="80" height="28" as="geometry">
            <mxRectangle width="80" height="28" as="alternateBounds" />
          </mxGeometry>
        </mxCell>
        <mxCell id="M9JLyXDeoK70wU_1un9L-7" value="$" style="connectable=0;recursiveResize=0;strokeColor=inherit;fillColor=none;align=center;whiteSpace=wrap;html=1;" vertex="1" parent="M9JLyXDeoK70wU_1un9L-5">
          <mxGeometry x="80" width="70" height="28" as="geometry">
            <mxRectangle width="70" height="28" as="alternateBounds" />
          </mxGeometry>
        </mxCell>
        <mxCell id="M9JLyXDeoK70wU_1un9L-14" style="rounded=0;orthogonalLoop=1;jettySize=auto;html=1;exitX=1;exitY=0.5;exitDx=0;exitDy=0;entryX=0;entryY=0.5;entryDx=0;entryDy=0;" edge="1" parent="1" source="zrLHYjm0IWK0QL-57Pdi-5" target="M9JLyXDeoK70wU_1un9L-5">
          <mxGeometry relative="1" as="geometry" />
        </mxCell>
        <mxCell id="M9JLyXDeoK70wU_1un9L-15" value="A" style="text;html=1;align=center;verticalAlign=middle;resizable=0;points=[];autosize=1;strokeColor=none;fillColor=none;fontSize=11;fontFamily=Helvetica;fontColor=default;" vertex="1" parent="1">
          <mxGeometry x="190" y="30" width="30" height="30" as="geometry" />
        </mxCell>
        <mxCell id="M9JLyXDeoK70wU_1un9L-17" value="" style="childLayout=tableLayout;recursiveResize=0;shadow=0;fillColor=default;" vertex="1" parent="1">
          <mxGeometry x="20" y="209" width="150" height="81" as="geometry" />
        </mxCell>
        <mxCell id="M9JLyXDeoK70wU_1un9L-18" value="" style="shape=tableRow;horizontal=0;startSize=0;swimlaneHead=0;swimlaneBody=0;top=0;left=0;bottom=0;right=0;dropTarget=0;collapsible=0;recursiveResize=0;expand=0;fontStyle=0;fillColor=none;strokeColor=inherit;" vertex="1" parent="M9JLyXDeoK70wU_1un9L-17">
          <mxGeometry width="150" height="25" as="geometry" />
        </mxCell>
        <mxCell id="M9JLyXDeoK70wU_1un9L-19" value="2" style="connectable=0;recursiveResize=0;strokeColor=inherit;fillColor=none;align=center;whiteSpace=wrap;html=1;" vertex="1" parent="M9JLyXDeoK70wU_1un9L-18">
          <mxGeometry width="80" height="25" as="geometry">
            <mxRectangle width="80" height="25" as="alternateBounds" />
          </mxGeometry>
        </mxCell>
        <mxCell id="M9JLyXDeoK70wU_1un9L-20" value="LA" style="connectable=0;recursiveResize=0;strokeColor=inherit;fillColor=none;align=center;whiteSpace=wrap;html=1;" vertex="1" parent="M9JLyXDeoK70wU_1un9L-18">
          <mxGeometry x="80" width="70" height="25" as="geometry">
            <mxRectangle width="70" height="25" as="alternateBounds" />
          </mxGeometry>
        </mxCell>
        <mxCell id="M9JLyXDeoK70wU_1un9L-21" style="shape=tableRow;horizontal=0;startSize=0;swimlaneHead=0;swimlaneBody=0;top=0;left=0;bottom=0;right=0;dropTarget=0;collapsible=0;recursiveResize=0;expand=0;fontStyle=0;fillColor=none;strokeColor=inherit;" vertex="1" parent="M9JLyXDeoK70wU_1un9L-17">
          <mxGeometry y="25" width="150" height="28" as="geometry" />
        </mxCell>
        <mxCell id="M9JLyXDeoK70wU_1un9L-22" value="A -&amp;gt; B . b" style="connectable=0;recursiveResize=0;strokeColor=inherit;fillColor=none;align=center;whiteSpace=wrap;html=1;" vertex="1" parent="M9JLyXDeoK70wU_1un9L-21">
          <mxGeometry width="80" height="28" as="geometry">
            <mxRectangle width="80" height="28" as="alternateBounds" />
          </mxGeometry>
        </mxCell>
        <mxCell id="M9JLyXDeoK70wU_1un9L-23" value="$" style="connectable=0;recursiveResize=0;strokeColor=inherit;fillColor=none;align=center;whiteSpace=wrap;html=1;" vertex="1" parent="M9JLyXDeoK70wU_1un9L-21">
          <mxGeometry x="80" width="70" height="28" as="geometry">
            <mxRectangle width="70" height="28" as="alternateBounds" />
          </mxGeometry>
        </mxCell>
        <mxCell id="M9JLyXDeoK70wU_1un9L-24" style="shape=tableRow;horizontal=0;startSize=0;swimlaneHead=0;swimlaneBody=0;top=0;left=0;bottom=0;right=0;dropTarget=0;collapsible=0;recursiveResize=0;expand=0;fontStyle=0;fillColor=none;strokeColor=inherit;" vertex="1" parent="M9JLyXDeoK70wU_1un9L-17">
          <mxGeometry y="53" width="150" height="28" as="geometry" />
        </mxCell>
        <mxCell id="M9JLyXDeoK70wU_1un9L-25" value="B -&amp;gt; B . a" style="connectable=0;recursiveResize=0;strokeColor=inherit;fillColor=none;align=center;whiteSpace=wrap;html=1;" vertex="1" parent="M9JLyXDeoK70wU_1un9L-24">
          <mxGeometry width="80" height="28" as="geometry">
            <mxRectangle width="80" height="28" as="alternateBounds" />
          </mxGeometry>
        </mxCell>
        <mxCell id="M9JLyXDeoK70wU_1un9L-26" value="a b" style="connectable=0;recursiveResize=0;strokeColor=inherit;fillColor=none;align=center;whiteSpace=wrap;html=1;" vertex="1" parent="M9JLyXDeoK70wU_1un9L-24">
          <mxGeometry x="80" width="70" height="28" as="geometry">
            <mxRectangle width="70" height="28" as="alternateBounds" />
          </mxGeometry>
        </mxCell>
        <mxCell id="M9JLyXDeoK70wU_1un9L-27" style="edgeStyle=none;shape=connector;rounded=0;orthogonalLoop=1;jettySize=auto;html=1;exitX=0.5;exitY=1;exitDx=0;exitDy=0;entryX=0.5;entryY=0;entryDx=0;entryDy=0;labelBackgroundColor=default;strokeColor=default;fontFamily=Helvetica;fontSize=11;fontColor=default;endArrow=classic;" edge="1" parent="1" source="zrLHYjm0IWK0QL-57Pdi-14" target="M9JLyXDeoK70wU_1un9L-18">
          <mxGeometry relative="1" as="geometry" />
        </mxCell>
        <mxCell id="M9JLyXDeoK70wU_1un9L-28" value="B" style="text;html=1;align=center;verticalAlign=middle;resizable=0;points=[];autosize=1;strokeColor=none;fillColor=none;fontSize=11;fontFamily=Helvetica;fontColor=default;" vertex="1" parent="1">
          <mxGeometry x="110" y="168" width="30" height="30" as="geometry" />
        </mxCell>
        <mxCell id="M9JLyXDeoK70wU_1un9L-29" value="" style="childLayout=tableLayout;recursiveResize=0;shadow=0;fillColor=default;" vertex="1" parent="1">
          <mxGeometry x="230" y="157" width="150" height="53" as="geometry" />
        </mxCell>
        <mxCell id="M9JLyXDeoK70wU_1un9L-30" value="" style="shape=tableRow;horizontal=0;startSize=0;swimlaneHead=0;swimlaneBody=0;top=0;left=0;bottom=0;right=0;dropTarget=0;collapsible=0;recursiveResize=0;expand=0;fontStyle=0;fillColor=none;strokeColor=inherit;" vertex="1" parent="M9JLyXDeoK70wU_1un9L-29">
          <mxGeometry width="150" height="25" as="geometry" />
        </mxCell>
        <mxCell id="M9JLyXDeoK70wU_1un9L-31" value="3" style="connectable=0;recursiveResize=0;strokeColor=inherit;fillColor=none;align=center;whiteSpace=wrap;html=1;" vertex="1" parent="M9JLyXDeoK70wU_1un9L-30">
          <mxGeometry width="80" height="25" as="geometry">
            <mxRectangle width="80" height="25" as="alternateBounds" />
          </mxGeometry>
        </mxCell>
        <mxCell id="M9JLyXDeoK70wU_1un9L-32" value="LA" style="connectable=0;recursiveResize=0;strokeColor=inherit;fillColor=none;align=center;whiteSpace=wrap;html=1;" vertex="1" parent="M9JLyXDeoK70wU_1un9L-30">
          <mxGeometry x="80" width="70" height="25" as="geometry">
            <mxRectangle width="70" height="25" as="alternateBounds" />
          </mxGeometry>
        </mxCell>
        <mxCell id="M9JLyXDeoK70wU_1un9L-33" style="shape=tableRow;horizontal=0;startSize=0;swimlaneHead=0;swimlaneBody=0;top=0;left=0;bottom=0;right=0;dropTarget=0;collapsible=0;recursiveResize=0;expand=0;fontStyle=0;fillColor=none;strokeColor=inherit;" vertex="1" parent="M9JLyXDeoK70wU_1un9L-29">
          <mxGeometry y="25" width="150" height="28" as="geometry" />
        </mxCell>
        <mxCell id="M9JLyXDeoK70wU_1un9L-34" value="A -&amp;gt; B b ." style="connectable=0;recursiveResize=0;strokeColor=inherit;fillColor=none;align=center;whiteSpace=wrap;html=1;" vertex="1" parent="M9JLyXDeoK70wU_1un9L-33">
          <mxGeometry width="80" height="28" as="geometry">
            <mxRectangle width="80" height="28" as="alternateBounds" />
          </mxGeometry>
        </mxCell>
        <mxCell id="M9JLyXDeoK70wU_1un9L-35" value="$" style="connectable=0;recursiveResize=0;strokeColor=inherit;fillColor=none;align=center;whiteSpace=wrap;html=1;" vertex="1" parent="M9JLyXDeoK70wU_1un9L-33">
          <mxGeometry x="80" width="70" height="28" as="geometry">
            <mxRectangle width="70" height="28" as="alternateBounds" />
          </mxGeometry>
        </mxCell>
        <mxCell id="M9JLyXDeoK70wU_1un9L-36" style="edgeStyle=none;shape=connector;rounded=0;orthogonalLoop=1;jettySize=auto;html=1;exitX=1;exitY=0.5;exitDx=0;exitDy=0;entryX=0;entryY=0.5;entryDx=0;entryDy=0;labelBackgroundColor=default;strokeColor=default;fontFamily=Helvetica;fontSize=11;fontColor=default;endArrow=classic;" edge="1" parent="1" source="M9JLyXDeoK70wU_1un9L-21" target="M9JLyXDeoK70wU_1un9L-33">
          <mxGeometry relative="1" as="geometry" />
        </mxCell>
        <mxCell id="M9JLyXDeoK70wU_1un9L-37" value="b" style="text;html=1;align=center;verticalAlign=middle;resizable=0;points=[];autosize=1;strokeColor=none;fillColor=none;fontSize=11;fontFamily=Helvetica;fontColor=default;" vertex="1" parent="1">
          <mxGeometry x="185" y="190" width="30" height="30" as="geometry" />
        </mxCell>
        <mxCell id="M9JLyXDeoK70wU_1un9L-38" value="" style="childLayout=tableLayout;recursiveResize=0;shadow=0;fillColor=default;" vertex="1" parent="1">
          <mxGeometry x="230" y="237" width="150" height="53" as="geometry" />
        </mxCell>
        <mxCell id="M9JLyXDeoK70wU_1un9L-39" value="" style="shape=tableRow;horizontal=0;startSize=0;swimlaneHead=0;swimlaneBody=0;top=0;left=0;bottom=0;right=0;dropTarget=0;collapsible=0;recursiveResize=0;expand=0;fontStyle=0;fillColor=none;strokeColor=inherit;" vertex="1" parent="M9JLyXDeoK70wU_1un9L-38">
          <mxGeometry width="150" height="25" as="geometry" />
        </mxCell>
        <mxCell id="M9JLyXDeoK70wU_1un9L-40" value="4" style="connectable=0;recursiveResize=0;strokeColor=inherit;fillColor=none;align=center;whiteSpace=wrap;html=1;" vertex="1" parent="M9JLyXDeoK70wU_1un9L-39">
          <mxGeometry width="80" height="25" as="geometry">
            <mxRectangle width="80" height="25" as="alternateBounds" />
          </mxGeometry>
        </mxCell>
        <mxCell id="M9JLyXDeoK70wU_1un9L-41" value="LA" style="connectable=0;recursiveResize=0;strokeColor=inherit;fillColor=none;align=center;whiteSpace=wrap;html=1;" vertex="1" parent="M9JLyXDeoK70wU_1un9L-39">
          <mxGeometry x="80" width="70" height="25" as="geometry">
            <mxRectangle width="70" height="25" as="alternateBounds" />
          </mxGeometry>
        </mxCell>
        <mxCell id="M9JLyXDeoK70wU_1un9L-42" style="shape=tableRow;horizontal=0;startSize=0;swimlaneHead=0;swimlaneBody=0;top=0;left=0;bottom=0;right=0;dropTarget=0;collapsible=0;recursiveResize=0;expand=0;fontStyle=0;fillColor=none;strokeColor=inherit;" vertex="1" parent="M9JLyXDeoK70wU_1un9L-38">
          <mxGeometry y="25" width="150" height="28" as="geometry" />
        </mxCell>
        <mxCell id="M9JLyXDeoK70wU_1un9L-43" value="B -&amp;gt; B a ." style="connectable=0;recursiveResize=0;strokeColor=inherit;fillColor=none;align=center;whiteSpace=wrap;html=1;" vertex="1" parent="M9JLyXDeoK70wU_1un9L-42">
          <mxGeometry width="80" height="28" as="geometry">
            <mxRectangle width="80" height="28" as="alternateBounds" />
          </mxGeometry>
        </mxCell>
        <mxCell id="M9JLyXDeoK70wU_1un9L-44" value="a b" style="connectable=0;recursiveResize=0;strokeColor=inherit;fillColor=none;align=center;whiteSpace=wrap;html=1;" vertex="1" parent="M9JLyXDeoK70wU_1un9L-42">
          <mxGeometry x="80" width="70" height="28" as="geometry">
            <mxRectangle width="70" height="28" as="alternateBounds" />
          </mxGeometry>
        </mxCell>
        <mxCell id="M9JLyXDeoK70wU_1un9L-45" style="edgeStyle=none;shape=connector;rounded=0;orthogonalLoop=1;jettySize=auto;html=1;exitX=1;exitY=0.5;exitDx=0;exitDy=0;entryX=0;entryY=0.5;entryDx=0;entryDy=0;labelBackgroundColor=default;strokeColor=default;fontFamily=Helvetica;fontSize=11;fontColor=default;endArrow=classic;" edge="1" parent="1" source="M9JLyXDeoK70wU_1un9L-24" target="M9JLyXDeoK70wU_1un9L-42">
          <mxGeometry relative="1" as="geometry" />
        </mxCell>
        <mxCell id="M9JLyXDeoK70wU_1un9L-46" value="a" style="text;html=1;align=center;verticalAlign=middle;resizable=0;points=[];autosize=1;strokeColor=none;fillColor=none;fontSize=11;fontFamily=Helvetica;fontColor=default;" vertex="1" parent="1">
          <mxGeometry x="185" y="280" width="30" height="30" as="geometry" />
        </mxCell>
      </root>
    </mxGraphModel>
  </diagram>
</mxfile>
